<mxfile host="app.diagrams.net" modified="2022-12-05T12:20:21.648Z" agent="5.0 (Macintosh; Intel Mac OS X 10_15_7) AppleWebKit/537.36 (KHTML, like Gecko) Chrome/107.0.0.0 Safari/537.36" version="20.6.0" etag="61i7w1ZXT_j2cjHdLpik" type="github">
  <diagram id="GN4448NN_RkWZDXanbbj" name="Page-1">
    <mxGraphModel dx="527" dy="1087" grid="1" gridSize="10" guides="1" tooltips="1" connect="1" arrows="1" fold="1" page="1" pageScale="1" pageWidth="1100" pageHeight="850" math="0" shadow="0">
      <root>
        <mxCell id="0" />
        <mxCell id="1" parent="0" />
        <mxCell id="DTT3Ea2O5jjgb7lR_MIF-1" style="edgeStyle=elbowEdgeStyle;rounded=0;orthogonalLoop=1;jettySize=auto;html=1;entryX=0;entryY=0.5;entryDx=0;entryDy=0;strokeColor=default;" edge="1" parent="1" source="DTT3Ea2O5jjgb7lR_MIF-2" target="DTT3Ea2O5jjgb7lR_MIF-4">
          <mxGeometry relative="1" as="geometry" />
        </mxCell>
        <mxCell id="DTT3Ea2O5jjgb7lR_MIF-2" value="Route 53" style="sketch=0;points=[[0,0,0],[0.25,0,0],[0.5,0,0],[0.75,0,0],[1,0,0],[0,1,0],[0.25,1,0],[0.5,1,0],[0.75,1,0],[1,1,0],[0,0.25,0],[0,0.5,0],[0,0.75,0],[1,0.25,0],[1,0.5,0],[1,0.75,0]];outlineConnect=0;fontColor=#232F3E;gradientColor=#945DF2;gradientDirection=north;fillColor=#5A30B5;strokeColor=#ffffff;dashed=0;verticalLabelPosition=bottom;verticalAlign=top;align=center;html=1;fontSize=12;fontStyle=0;aspect=fixed;shape=mxgraph.aws4.resourceIcon;resIcon=mxgraph.aws4.route_53;" vertex="1" parent="1">
          <mxGeometry x="140" y="539.5" width="50" height="50" as="geometry" />
        </mxCell>
        <mxCell id="DTT3Ea2O5jjgb7lR_MIF-75" style="edgeStyle=orthogonalEdgeStyle;rounded=0;orthogonalLoop=1;jettySize=auto;html=1;fontSize=8;" edge="1" parent="1" source="DTT3Ea2O5jjgb7lR_MIF-4" target="DTT3Ea2O5jjgb7lR_MIF-12">
          <mxGeometry relative="1" as="geometry" />
        </mxCell>
        <mxCell id="DTT3Ea2O5jjgb7lR_MIF-4" value="" style="swimlane;fontSize=14;align=center;swimlaneFillColor=none;fillColor=none;startSize=356;container=1;pointerEvents=0;collapsible=0;recursiveResize=0;gradientColor=none;strokeColor=default;dashed=1;" vertex="1" parent="1">
          <mxGeometry x="220" y="429.5" width="250" height="270" as="geometry" />
        </mxCell>
        <mxCell id="DTT3Ea2O5jjgb7lR_MIF-5" value="WAF" style="sketch=0;points=[[0,0,0],[0.25,0,0],[0.5,0,0],[0.75,0,0],[1,0,0],[0,1,0],[0.25,1,0],[0.5,1,0],[0.75,1,0],[1,1,0],[0,0.25,0],[0,0.5,0],[0,0.75,0],[1,0.25,0],[1,0.5,0],[1,0.75,0]];outlineConnect=0;fontColor=#232F3E;gradientColor=#F54749;gradientDirection=north;fillColor=#C7131F;strokeColor=#ffffff;dashed=0;verticalLabelPosition=bottom;verticalAlign=top;align=center;html=1;fontSize=12;fontStyle=0;aspect=fixed;shape=mxgraph.aws4.resourceIcon;resIcon=mxgraph.aws4.waf;" vertex="1" parent="DTT3Ea2O5jjgb7lR_MIF-4">
          <mxGeometry x="194" y="103" width="50" height="50" as="geometry" />
        </mxCell>
        <mxCell id="DTT3Ea2O5jjgb7lR_MIF-6" value="/admin" style="sketch=0;outlineConnect=0;fontColor=#232F3E;gradientColor=none;fillColor=#4D27AA;strokeColor=none;dashed=0;verticalLabelPosition=bottom;verticalAlign=top;align=center;html=1;fontSize=12;fontStyle=0;aspect=fixed;pointerEvents=1;shape=mxgraph.aws4.edge_location;" vertex="1" parent="DTT3Ea2O5jjgb7lR_MIF-4">
          <mxGeometry x="40" y="40" width="40" height="40" as="geometry" />
        </mxCell>
        <mxCell id="DTT3Ea2O5jjgb7lR_MIF-7" value=".com" style="sketch=0;outlineConnect=0;fontColor=#232F3E;gradientColor=none;fillColor=#4D27AA;strokeColor=none;dashed=0;verticalLabelPosition=bottom;verticalAlign=top;align=center;html=1;fontSize=12;fontStyle=0;aspect=fixed;pointerEvents=1;shape=mxgraph.aws4.edge_location;" vertex="1" parent="DTT3Ea2O5jjgb7lR_MIF-4">
          <mxGeometry x="40" y="180" width="40" height="40" as="geometry" />
        </mxCell>
        <mxCell id="DTT3Ea2O5jjgb7lR_MIF-8" value="" style="swimlane;fontSize=14;align=center;swimlaneFillColor=none;fillColor=none;startSize=356;container=1;pointerEvents=0;collapsible=0;recursiveResize=0;strokeColor=#b85450;dashed=1;strokeWidth=2;" vertex="1" parent="1">
          <mxGeometry x="230" y="439.5" width="170" height="240" as="geometry" />
        </mxCell>
        <mxCell id="DTT3Ea2O5jjgb7lR_MIF-9" value="Cloudfont" style="sketch=0;points=[[0,0,0],[0.25,0,0],[0.5,0,0],[0.75,0,0],[1,0,0],[0,1,0],[0.25,1,0],[0.5,1,0],[0.75,1,0],[1,1,0],[0,0.25,0],[0,0.5,0],[0,0.75,0],[1,0.25,0],[1,0.5,0],[1,0.75,0]];outlineConnect=0;fontColor=#232F3E;gradientColor=#945DF2;gradientDirection=north;fillColor=#5A30B5;strokeColor=#ffffff;dashed=0;verticalLabelPosition=bottom;verticalAlign=top;align=center;html=1;fontSize=12;fontStyle=0;aspect=fixed;shape=mxgraph.aws4.resourceIcon;resIcon=mxgraph.aws4.cloudfront;direction=south;" vertex="1" parent="DTT3Ea2O5jjgb7lR_MIF-8">
          <mxGeometry x="110" y="90.5" width="50" height="50" as="geometry" />
        </mxCell>
        <mxCell id="DTT3Ea2O5jjgb7lR_MIF-10" style="edgeStyle=elbowEdgeStyle;rounded=0;orthogonalLoop=1;jettySize=auto;html=1;strokeColor=default;" edge="1" parent="1" source="DTT3Ea2O5jjgb7lR_MIF-9" target="DTT3Ea2O5jjgb7lR_MIF-6">
          <mxGeometry relative="1" as="geometry" />
        </mxCell>
        <mxCell id="DTT3Ea2O5jjgb7lR_MIF-11" style="edgeStyle=elbowEdgeStyle;rounded=0;orthogonalLoop=1;jettySize=auto;html=1;strokeColor=default;" edge="1" parent="1" source="DTT3Ea2O5jjgb7lR_MIF-9" target="DTT3Ea2O5jjgb7lR_MIF-7">
          <mxGeometry relative="1" as="geometry" />
        </mxCell>
        <mxCell id="DTT3Ea2O5jjgb7lR_MIF-76" style="edgeStyle=orthogonalEdgeStyle;rounded=0;orthogonalLoop=1;jettySize=auto;html=1;fontSize=8;" edge="1" parent="1" source="DTT3Ea2O5jjgb7lR_MIF-12" target="DTT3Ea2O5jjgb7lR_MIF-74">
          <mxGeometry relative="1" as="geometry">
            <Array as="points">
              <mxPoint x="580" y="345" />
              <mxPoint x="580" y="560" />
            </Array>
          </mxGeometry>
        </mxCell>
        <mxCell id="DTT3Ea2O5jjgb7lR_MIF-12" value="" style="swimlane;fontSize=14;align=center;swimlaneFillColor=none;fillColor=none;startSize=356;container=1;pointerEvents=0;collapsible=0;recursiveResize=0;gradientColor=none;strokeColor=default;dashed=1;" vertex="1" parent="1">
          <mxGeometry x="220" y="289.75" width="250" height="110.5" as="geometry" />
        </mxCell>
        <mxCell id="DTT3Ea2O5jjgb7lR_MIF-14" value="Amplify" style="sketch=0;points=[[0,0,0],[0.25,0,0],[0.5,0,0],[0.75,0,0],[1,0,0],[0,1,0],[0.25,1,0],[0.5,1,0],[0.75,1,0],[1,1,0],[0,0.25,0],[0,0.5,0],[0,0.75,0],[1,0.25,0],[1,0.5,0],[1,0.75,0]];outlineConnect=0;fontColor=#232F3E;gradientColor=#F54749;gradientDirection=north;fillColor=#C7131F;strokeColor=#ffffff;dashed=0;verticalLabelPosition=bottom;verticalAlign=top;align=center;html=1;fontSize=12;fontStyle=0;aspect=fixed;shape=mxgraph.aws4.resourceIcon;resIcon=mxgraph.aws4.amplify;" vertex="1" parent="DTT3Ea2O5jjgb7lR_MIF-12">
          <mxGeometry x="40" y="29.75" width="50" height="50" as="geometry" />
        </mxCell>
        <mxCell id="DTT3Ea2O5jjgb7lR_MIF-16" value="" style="swimlane;fontSize=14;align=center;swimlaneFillColor=none;fillColor=none;startSize=356;container=1;pointerEvents=0;collapsible=0;recursiveResize=0;gradientColor=none;strokeColor=default;dashed=1;" vertex="1" parent="DTT3Ea2O5jjgb7lR_MIF-12">
          <mxGeometry x="130" y="24.75" width="100" height="60" as="geometry" />
        </mxCell>
        <mxCell id="DTT3Ea2O5jjgb7lR_MIF-13" value="&lt;font style=&quot;font-size: 8px;&quot;&gt;IAM&lt;/font&gt;" style="sketch=0;points=[[0,0,0],[0.25,0,0],[0.5,0,0],[0.75,0,0],[1,0,0],[0,1,0],[0.25,1,0],[0.5,1,0],[0.75,1,0],[1,1,0],[0,0.25,0],[0,0.5,0],[0,0.75,0],[1,0.25,0],[1,0.5,0],[1,0.75,0]];outlineConnect=0;fontColor=#232F3E;gradientColor=#F54749;gradientDirection=north;fillColor=#C7131F;strokeColor=#ffffff;dashed=0;verticalLabelPosition=bottom;verticalAlign=top;align=center;html=1;fontSize=12;fontStyle=0;aspect=fixed;shape=mxgraph.aws4.resourceIcon;resIcon=mxgraph.aws4.cognito;" vertex="1" parent="DTT3Ea2O5jjgb7lR_MIF-16">
          <mxGeometry x="10" y="10" width="30.25" height="30.25" as="geometry" />
        </mxCell>
        <mxCell id="DTT3Ea2O5jjgb7lR_MIF-59" value="" style="shape=image;html=1;verticalAlign=top;verticalLabelPosition=bottom;labelBackgroundColor=#ffffff;imageAspect=0;aspect=fixed;image=https://cdn1.iconfinder.com/data/icons/unicons-line-vol-5/24/react-128.png" vertex="1" parent="DTT3Ea2O5jjgb7lR_MIF-16">
          <mxGeometry x="60" y="15" width="30" height="30" as="geometry" />
        </mxCell>
        <mxCell id="DTT3Ea2O5jjgb7lR_MIF-45" value="2" style="rounded=1;whiteSpace=wrap;html=1;fillColor=#007CBD;strokeColor=none;fontColor=#FFFFFF;fontStyle=1;fontSize=16;labelBackgroundColor=none;" vertex="1" parent="1">
          <mxGeometry x="200" y="429.5" width="20" height="20" as="geometry" />
        </mxCell>
        <mxCell id="DTT3Ea2O5jjgb7lR_MIF-46" value="1" style="rounded=1;whiteSpace=wrap;html=1;fillColor=#007CBD;strokeColor=none;fontColor=#FFFFFF;fontStyle=1;fontSize=16;labelBackgroundColor=none;" vertex="1" parent="1">
          <mxGeometry x="140" y="519.5" width="20" height="20" as="geometry" />
        </mxCell>
        <mxCell id="DTT3Ea2O5jjgb7lR_MIF-47" value="3" style="rounded=1;whiteSpace=wrap;html=1;fillColor=#007CBD;strokeColor=none;fontColor=#FFFFFF;fontStyle=1;fontSize=16;labelBackgroundColor=none;" vertex="1" parent="1">
          <mxGeometry x="200" y="289.75" width="20" height="20" as="geometry" />
        </mxCell>
        <mxCell id="DTT3Ea2O5jjgb7lR_MIF-60" value="" style="swimlane;fontSize=14;align=center;swimlaneFillColor=none;fillColor=none;startSize=356;container=1;pointerEvents=0;collapsible=0;recursiveResize=0;gradientColor=none;strokeColor=default;dashed=1;" vertex="1" parent="1">
          <mxGeometry x="625" y="305.25" width="290" height="100" as="geometry" />
        </mxCell>
        <mxCell id="DTT3Ea2O5jjgb7lR_MIF-61" style="edgeStyle=elbowEdgeStyle;rounded=0;orthogonalLoop=1;jettySize=auto;html=1;fontSize=16;strokeColor=default;" edge="1" parent="DTT3Ea2O5jjgb7lR_MIF-60" target="DTT3Ea2O5jjgb7lR_MIF-60">
          <mxGeometry relative="1" as="geometry">
            <mxPoint x="55.66666666666674" y="50" as="sourcePoint" />
          </mxGeometry>
        </mxCell>
        <mxCell id="DTT3Ea2O5jjgb7lR_MIF-62" style="edgeStyle=elbowEdgeStyle;rounded=0;orthogonalLoop=1;jettySize=auto;html=1;fontSize=16;strokeColor=default;" edge="1" parent="DTT3Ea2O5jjgb7lR_MIF-60" target="DTT3Ea2O5jjgb7lR_MIF-60">
          <mxGeometry relative="1" as="geometry">
            <mxPoint x="55.66666666666674" y="50" as="sourcePoint" />
          </mxGeometry>
        </mxCell>
        <mxCell id="DTT3Ea2O5jjgb7lR_MIF-64" value="Lamda" style="sketch=0;points=[[0,0,0],[0.25,0,0],[0.5,0,0],[0.75,0,0],[1,0,0],[0,1,0],[0.25,1,0],[0.5,1,0],[0.75,1,0],[1,1,0],[0,0.25,0],[0,0.5,0],[0,0.75,0],[1,0.25,0],[1,0.5,0],[1,0.75,0]];outlineConnect=0;fontColor=#232F3E;gradientColor=#F78E04;gradientDirection=north;fillColor=#D05C17;strokeColor=#ffffff;dashed=0;verticalLabelPosition=bottom;verticalAlign=top;align=center;html=1;fontSize=12;fontStyle=0;aspect=fixed;shape=mxgraph.aws4.resourceIcon;resIcon=mxgraph.aws4.lambda;" vertex="1" parent="DTT3Ea2O5jjgb7lR_MIF-60">
          <mxGeometry x="40" y="25" width="50" height="50" as="geometry" />
        </mxCell>
        <mxCell id="DTT3Ea2O5jjgb7lR_MIF-77" style="edgeStyle=orthogonalEdgeStyle;rounded=0;orthogonalLoop=1;jettySize=auto;html=1;fontSize=8;" edge="1" parent="DTT3Ea2O5jjgb7lR_MIF-60" source="DTT3Ea2O5jjgb7lR_MIF-65" target="DTT3Ea2O5jjgb7lR_MIF-64">
          <mxGeometry relative="1" as="geometry" />
        </mxCell>
        <mxCell id="DTT3Ea2O5jjgb7lR_MIF-79" value="" style="edgeStyle=orthogonalEdgeStyle;rounded=0;orthogonalLoop=1;jettySize=auto;html=1;fontSize=8;" edge="1" parent="DTT3Ea2O5jjgb7lR_MIF-60" source="DTT3Ea2O5jjgb7lR_MIF-65" target="DTT3Ea2O5jjgb7lR_MIF-64">
          <mxGeometry relative="1" as="geometry" />
        </mxCell>
        <mxCell id="DTT3Ea2O5jjgb7lR_MIF-65" value="AWS IoT Core" style="sketch=0;points=[[0,0,0],[0.25,0,0],[0.5,0,0],[0.75,0,0],[1,0,0],[0,1,0],[0.25,1,0],[0.5,1,0],[0.75,1,0],[1,1,0],[0,0.25,0],[0,0.5,0],[0,0.75,0],[1,0.25,0],[1,0.5,0],[1,0.75,0]];outlineConnect=0;fontColor=#232F3E;gradientColor=#60A337;gradientDirection=north;fillColor=#277116;strokeColor=#ffffff;dashed=0;verticalLabelPosition=bottom;verticalAlign=top;align=center;html=1;fontSize=12;fontStyle=0;aspect=fixed;shape=mxgraph.aws4.resourceIcon;resIcon=mxgraph.aws4.iot_core;" vertex="1" parent="DTT3Ea2O5jjgb7lR_MIF-60">
          <mxGeometry x="180" y="25" width="50" height="50" as="geometry" />
        </mxCell>
        <mxCell id="DTT3Ea2O5jjgb7lR_MIF-68" value="" style="swimlane;fontSize=14;align=center;swimlaneFillColor=none;fillColor=none;startSize=356;container=1;pointerEvents=0;collapsible=0;recursiveResize=0;gradientColor=none;strokeColor=default;dashed=1;" vertex="1" parent="1">
          <mxGeometry x="650" y="514.5" width="240" height="100" as="geometry" />
        </mxCell>
        <mxCell id="DTT3Ea2O5jjgb7lR_MIF-69" style="edgeStyle=elbowEdgeStyle;rounded=0;orthogonalLoop=1;jettySize=auto;html=1;fontSize=16;strokeColor=default;" edge="1" parent="DTT3Ea2O5jjgb7lR_MIF-68" target="DTT3Ea2O5jjgb7lR_MIF-68">
          <mxGeometry relative="1" as="geometry">
            <mxPoint x="55.66666666666674" y="50" as="sourcePoint" />
          </mxGeometry>
        </mxCell>
        <mxCell id="DTT3Ea2O5jjgb7lR_MIF-70" style="edgeStyle=elbowEdgeStyle;rounded=0;orthogonalLoop=1;jettySize=auto;html=1;fontSize=16;strokeColor=default;startArrow=none;" edge="1" parent="DTT3Ea2O5jjgb7lR_MIF-68" target="DTT3Ea2O5jjgb7lR_MIF-68" source="DTT3Ea2O5jjgb7lR_MIF-74">
          <mxGeometry relative="1" as="geometry">
            <mxPoint x="55.66666666666674" y="50" as="sourcePoint" />
          </mxGeometry>
        </mxCell>
        <mxCell id="DTT3Ea2O5jjgb7lR_MIF-82" style="edgeStyle=orthogonalEdgeStyle;rounded=0;orthogonalLoop=1;jettySize=auto;html=1;fontSize=8;" edge="1" parent="DTT3Ea2O5jjgb7lR_MIF-68" source="DTT3Ea2O5jjgb7lR_MIF-57" target="DTT3Ea2O5jjgb7lR_MIF-74">
          <mxGeometry relative="1" as="geometry" />
        </mxCell>
        <mxCell id="DTT3Ea2O5jjgb7lR_MIF-57" value="Dynamo" style="sketch=0;points=[[0,0,0],[0.25,0,0],[0.5,0,0],[0.75,0,0],[1,0,0],[0,1,0],[0.25,1,0],[0.5,1,0],[0.75,1,0],[1,1,0],[0,0.25,0],[0,0.5,0],[0,0.75,0],[1,0.25,0],[1,0.5,0],[1,0.75,0]];outlineConnect=0;fontColor=#232F3E;gradientColor=#4D72F3;gradientDirection=north;fillColor=#3334B9;strokeColor=#ffffff;dashed=0;verticalLabelPosition=bottom;verticalAlign=top;align=center;html=1;fontSize=12;fontStyle=0;aspect=fixed;shape=mxgraph.aws4.resourceIcon;resIcon=mxgraph.aws4.dynamodb;" vertex="1" parent="DTT3Ea2O5jjgb7lR_MIF-68">
          <mxGeometry x="160" y="22" width="50" height="50" as="geometry" />
        </mxCell>
        <mxCell id="DTT3Ea2O5jjgb7lR_MIF-81" style="edgeStyle=orthogonalEdgeStyle;rounded=0;orthogonalLoop=1;jettySize=auto;html=1;entryX=0;entryY=0.5;entryDx=0;entryDy=0;entryPerimeter=0;fontSize=8;" edge="1" parent="DTT3Ea2O5jjgb7lR_MIF-68" source="DTT3Ea2O5jjgb7lR_MIF-74" target="DTT3Ea2O5jjgb7lR_MIF-57">
          <mxGeometry relative="1" as="geometry" />
        </mxCell>
        <mxCell id="DTT3Ea2O5jjgb7lR_MIF-74" value="DAX" style="sketch=0;outlineConnect=0;fontColor=#232F3E;gradientColor=none;fillColor=#2E27AD;strokeColor=none;dashed=0;verticalLabelPosition=bottom;verticalAlign=top;align=center;html=1;fontSize=12;fontStyle=0;aspect=fixed;pointerEvents=1;shape=mxgraph.aws4.dynamodb_dax;" vertex="1" parent="DTT3Ea2O5jjgb7lR_MIF-68">
          <mxGeometry x="40" y="23.93" width="50" height="46.15" as="geometry" />
        </mxCell>
        <mxCell id="DTT3Ea2O5jjgb7lR_MIF-78" style="edgeStyle=orthogonalEdgeStyle;rounded=0;orthogonalLoop=1;jettySize=auto;html=1;entryX=0.5;entryY=0;entryDx=0;entryDy=0;entryPerimeter=0;fontSize=8;" edge="1" parent="1" source="DTT3Ea2O5jjgb7lR_MIF-64" target="DTT3Ea2O5jjgb7lR_MIF-57">
          <mxGeometry relative="1" as="geometry">
            <Array as="points">
              <mxPoint x="690" y="470" />
              <mxPoint x="835" y="470" />
            </Array>
          </mxGeometry>
        </mxCell>
        <mxCell id="DTT3Ea2O5jjgb7lR_MIF-83" value="4" style="rounded=1;whiteSpace=wrap;html=1;fillColor=#007CBD;strokeColor=none;fontColor=#FFFFFF;fontStyle=1;fontSize=16;labelBackgroundColor=none;arcSize=0;" vertex="1" parent="1">
          <mxGeometry x="670" y="494.5" width="20" height="20" as="geometry" />
        </mxCell>
        <mxCell id="DTT3Ea2O5jjgb7lR_MIF-84" value="5" style="rounded=1;whiteSpace=wrap;html=1;fillColor=#007CBD;strokeColor=none;fontColor=#FFFFFF;fontStyle=1;fontSize=16;labelBackgroundColor=none;" vertex="1" parent="1">
          <mxGeometry x="660" y="284.75" width="20" height="20" as="geometry" />
        </mxCell>
        <mxCell id="DTT3Ea2O5jjgb7lR_MIF-89" value="" style="shape=image;verticalLabelPosition=bottom;labelBackgroundColor=default;verticalAlign=top;aspect=fixed;imageAspect=0;image=data:image/png,iVBORw0KGgoAAAANSUhEUgAAAKAAAACgCAYAAACLz2ctAAABdWlDQ1BrQ0dDb2xvclNwYWNlRGlzcGxheVAzAAAokXWQvUvDUBTFT6tS0DqIDh0cMolD1NIKdnFoKxRFMFQFq1OafgltfCQpUnETVyn4H1jBWXCwiFRwcXAQRAcR3Zw6KbhoeN6XVNoi3sfl/Ticc7lcwBtQGSv2AijplpFMxKS11Lrke4OHnlOqZrKooiwK/v276/PR9d5PiFlNu3YQ2U9cl84ul3aeAlN//V3Vn8maGv3f1EGNGRbgkYmVbYsJ3iUeMWgp4qrgvMvHgtMunzuelWSc+JZY0gpqhrhJLKc79HwHl4plrbWD2N6f1VeXxRzqUcxhEyYYilBRgQQF4X/8044/ji1yV2BQLo8CLMpESRETssTz0KFhEjJxCEHqkLhz634PrfvJbW3vFZhtcM4v2tpCAzidoZPV29p4BBgaAG7qTDVUR+qh9uZywPsJMJgChu8os2HmwiF3e38M6Hvh/GMM8B0CdpXzryPO7RqFn4Er/QcXKWq8UwZBywAAADhlWElmTU0AKgAAAAgAAYdpAAQAAAABAAAAGgAAAAAAAqACAAQAAAABAAAAoKADAAQAAAABAAAAoAAAAACEJDuzAAAX60lEQVR4Ae1dB3wVRRMfeq8BREB6EQg9lBCKFBEREJQmTQSlIyjyYYMPUUQRRWkWQMpHLwICUkIIgVATeu9FutKrFPn2v3Lxcm/vlSTv7QvM5Pd+d7e35W7yv93ZmdnZJEXLVH9ITMwBTRxIqqldbpY5IDnAAGQgaOUAA1Ar+7lxBiBjQCsHGIBa2c+NMwAZA1o5wADUyn5unAHIGNDKAQagVvZz4wxAxoBWDjAAtbKfG2cAMga0coABqJX93DgDkDGglQMMQK3s58YZgIwBrRxgAGplPzfOAGQMaOUAA1Ar+7lxBiBjQCsHGIBa2c+NMwAZA1o5wADUyn5unAHIGNDKAQagVvZz4wxAxoBWDjAAtbKfG2cAMga0coABqJX93DgDkDGglQMMQK3s58YZgIwBrRxgAGplPzfOAGQMaOUAA1Ar+7lxBiBjQCsHGIBa2c+NMwAZA1o5wADUyn5unAHIGNDKAQagVvZz4wxAxoBWDjAAtbKfG2cAMga0coABqJX93DgDkDGglQMMQK3s58aT+xMLsmbJTFUqlafixQpTiWeLUu7cT1OG9OnkL3ny5PTX3bt05co1OnvuPB08fJS2bNtJEWs30rXrN9x6jSRJklDyZMli8j74+2/6W/ziQynEcxl07/594zTOx+TJk1ES8Qd6KP7u33/gVl0ZMqSnurWqUdlSJSmw5LOULSArZcqYgZKJ+q4L/ly5eo1OnPhd8m3n7n20KWob3bh5y626vZkpie4Nq3NkD6CXG75Az9euQaUDixNA4gndvXePli4Po9E/TKKTp87YFi1SqADNmzGOUqVMGZPn4cOHtHf/IerUrS9dvnI1Jt2dk7feaE3dO79OadOkicl+XwBww6Yt1K33B+QpGBu/VI8G9O9NGQVozPTD+Ck0YvR4c1Ks87zP5Ka3u3WkenVqUKpUqWLdc3aBZ43eupNmzfuVflu+yllWr97TNgTjC/3y0w8pfOkceq93VypTqoTH4ANnUqZIIQBcnxbNnUzNmr7klFlm8CEjwF6yeFFq3aKJ03LWm+nSpqFeXd+IBT7kQS9dPaQy1X4uxFrE6XUy0Sv3f7e7A/hQKK1oy466v9WeFs+bTI0aPO8R+FAfnhWjzYgvB9FPo4dR0qR6oKCnVcGAb4d9Qk0a1ZeMsGOwJ+mpU6eiIf/tT6++3EBZ7NCRY/THnxeV92o/V02ZbpcYVKGM0394teCKdkWV6aUeDZmqm2siNzkkA7D4eHv3eDNWj+6Q0c2EmtWqUFD50m7mTths2gBYsEDehH2TR7UN+rgv4R+qolWrI1XJQt4sQhmFDOUuBZVz/s8KqlDW3apkvqqVKyjzQ3bbsHmLw70+PTrJj9fhRjwSrEN/PKryqOi/ErRHxeKfWdXl37x1i6KitxOE5ANiknH+/B9SgEZr6cVkJNfTT1FgiWJUv15tyidkHxVhSMaQ/nrnPg63V65eRy2bveyQjmepVLEcrVy11uGeKqGiC4AVzJ+XMKG6dPmKqrhDWtUq6h4zfM16h0kIwP9mh9YOdSABct2y0HAKDY+k/UK2PX/hT7p95w5hopQuXVrJvwLi2SqUK0XVqlaOxcOH8ZyMKR/IjURtAPzrr7vy8a7fuEkrVq6mxcvCaHP0NgeGm99h994DtCJsDX0zahw1f6WhFNpVgjdkG/SCu/bsNxenjWKCAJCnS5s2VjougiuWdwuAGOoDS6h7WHOlGNLwrK4oTerUVKZ0CWU2VfleYsKh+ngBts49+9H+g0cc6sKECLNg/DDpWiJ4DSpfNpBeESIL5GBVOYeKvJCgDYAf/HeoVK9ERG6kO3f+8vjV5vyyWH7xXwz+UFkWKgkrADFjXrtuM9V//jmHMlVshkFrRkyWUqRwzbaKQk5UAchaH4CKXttK4Mna9bHlv6xZMlFl0VOraOCnX3kMoq3bdxN+OkmbDLh+YzQtXxkRJ/AZDJv/6zKp1zKuzceg8mXMlzHnK8PVvVLhgvkpe7asMfnsTioq6rUCHWXt2rfWG2wD/EgBPuuHWaxoYaWm4PbtO4QPOTGSNgAmFLOM4cRaXwkxrKgIimvISirC0O2KVPLfmJ8mOxR7VoAFcqsrCq4cpMyyXDF8Z8qUUZkXYgx0momREj0Ad+3Zp+Q7FMSqoQ1Wk6gtO5RlXAEQVgoMwWaCXBUesY7OnD1vTpZyWvmypWKlWS+yZM4krT7W9Hv37hMmIFa6deu2NUleZwvIQgFZsyjv+XtiogcghG87ypQpg/LWynD1bDe4kro3MirB5CNNmtTGpTxGb9kuj1FbtsVKx4Ur3RoAr7L8wEwGFYyVjgtTmoowKfnPO91Ut/w+LdED8IYYfuwIM0wVhdnoA3PnyknPCPuzHWFiYaWorf/0ppuF+shKFcuXtSbFurbT/4WuioiVz7g4+ftpW3MjlPojhw+mp3JkM7InimOiB+CDB06M9TZ25bPnLgh1xEHlP8jZbFilgDaAZxzNlQaWLCYsJv/ans33cB6s0P/BOWKl0OPZ0bSZ8+xu0Qt1n6PQxTPp80H9Xfa+tpX4+IZrfYKPHwhK3NKlitPTOXNIb4706dIR1CeY6cGUBvAcPXaSMBx5avA3v0qY+CfD48ZKwZUqEFQ8VsJQWcFiAYHwb+jP4AhxTijOcz6VPaYoZFDIjCpwoqdV9bbbduyhPy9eiqnDejJt5nxh825ERQrlt96S17B3v9rkJfmDeLIqIpJCV62R3i/uetYoK/ZSol8AMH/ePPSacAiAVwwEc3cIM9mDh48JMB53J7tDHsiBUOpayW4i8mzRQgSXJzPBHczszhUl5EE4BpgJahsVAO162hVh6uHXqBMfXZ9+A2jqz6Nd8grD8WvNm8gfZMrVazcI3WQErV6zQX7URp06j1qHYAxPH7zXk5YtnEYd2rZwyVAzo+DNARtuwxdj/8PNeZydo+c6dfqsQxbMJuG6ZSWVXi/6kfxn5N0kLDlWUpVDnhAb9ctK0Vu5osNHT9Drb/WWo4CrvMZ9fDz4OEZ9/RmtC1sgrUj+IC9qAyDsuvNnTpDAU80EDcZ58xi22mY2rFAOq4Bk7dlgx7ZS2TIlCd4rVqqs0DnCTHbqzDlrVuX1gUNHqWmrN+nHn6dK8USZySYRjgdtX3uVQhfNoM4d2yhn4jZFEzxZCwBhUpoyfiQVKpDP6QvBA/rEyVO0Z99B+Tty7IR0HE0opWuYcE5QUbACHFaVyq3bt8UzHYhV/Lh41gt/XIyVBn0kbK1mKl6siHRWMKfhPNTF8GvNj2f4ZuRPVLtBcxo6fJS081rzOLuGHb3v211o9NefKj8SZ2UT6p4WGRB+eyoBHC8F0E2fNZ8W/RYqBXzVLBdDN0xnxYRcBi9qyDlxIXgEQ5Gc2WJhgLUDujVDviuQ7xnp4m5uY7uYLKiEesiBL9WvY84qZ6Tw8DEouLLa4rLCjeHXqMN8vHT5Kk2aOkf+oEqqXTNEuOdXl+1CVHFFdYU3+kf9etHgL751lTXB7/u8B0RPYucAevb8BWrSoiN98fUY2eOpwAcOwJMGveIvC5fSmB8nxZkpqD9i7XqH8pCXAkv822vBAdVKmxWKZ+SBR4+VrOa7EIX65ZiY1R8+ctxa1OPr02II/9+MedIdrUqtxvTu+5/InhWaBGfUumVTWz9KZ+Xie8/nAGyl8MfDS6C36fnOR3T0+EmP3smdL9xZhXY6typCHWNQRYW3sJ05zyoXog6z+ga+eeZrow1Ph1+jnLMjZr6wlffsO4Bq1nuFvh83WXy8as8jyOEd2jZ3Vp1X7vkcgCE27upYzAN/P08J6zPiQ3DPUv1ToA80KMhi0YCYsHPXv0OqkQ9HfEBWPR5WpxUtXFBmw6TEas7DDejqvEkYpr8dM4FatOtKV69dVzZVI6SKzyckPgUgJh/wFFbR5kc2VdU9Z2lYuhkfgscwwG8lOBJAkQyFOOQqMwF8zoY01Ww4qMI/bvxVFeoXiB47d8d2njW3l5DnUD+NGPWTskrMjrFK0ZfkUwBmzmSvZL585Uqc3rtc6ZK25ZLamOKsBUIVzgnwfEZvpbL/2sl/Rr2qj8mwC1et4ujwEObmUgCj/vgenfkOwvLkS3I9RUrAp7ljI3+gibi8eEphdmraWL0KDnViHYQ7FB6xXsqgVld3DMMBWR17bJWcZ25HBUDoEdOL51EtmIrr7NfcpifnxuxeVebGTXvnDlX++Kb5tAe8LOQQO3JnnYW17Pt9u8eyvVrv53FzeL546TJt37nXWlysm61A1hVu8NXbvnOPQ15zAmazFy/F7tExtDVr2tBB34aFS3YTGnOdCXlu9Wk06kakBGfubUa+hDz6FICQt+yiF9QRi7ndNQ1hxtavT1dq0/IVp7xQyVt2BVRWkTLCKcKqLN+9d7+Dq7yqzuit2x2SYXWwEpwFnPVI5vxQaGMxlp0cbc5rdw4XtV5dOypvb9gYpUz3ZqJPAYgXwVoHFUErP/qbIS6Zi5Vc0yeOsV2aaK67obB9ujtLhneMlVQmNCia3SHVMK3yWnZn4ZLR3ru9utBnA/9DESvmCZvup4SP1s7n0ShjPgLA0yeNoSKFHW3dyDdt9gJzdp+c+1QGxBtNn7WAoAu0ylu4B6sGHBN+WbiEooSV4pIYGtMIU1b2bAFUVixdxPoJWCXMhN7jhHDUtKYjD2Qu2Dx/nDDVXER5DkUwTH3WHs+aebONO781nztAxZC3YaPjDNxal3Ft+BZidl6vTk35g0gAK8ve/QcI73Dm7AW6KeQ4LGjCRCqrdK7IT9WCKwke2k/YEB9GpQ0w2vbW0ecARIiMeQuWiKGkkfKdoDN7o10r+VNmMCUCfB998iUdEm5Zc6epVQsd27eicROnuzXMhYnZsDMAwnKybfsu0xPYn8JZAAGPnLmXrREr2Zypc6y1qyxDWCKKheb4xZUgFg0eOiKuxeNVzudDMJ528BffuRTkXb0Veo/ufT6U5jgsi4TtWEVnzp5zC3woa2cVMerdd+CwRyHNtljctYx6jONyD50PduxyPvkx6vXkePjocWrzRg+Po4N50oazvFoAeFdYEhASzZXzpd2DR66PosbNO8RaOTZk2EjpkWwuM1uEHmvX6W1zktPzHbv2yuHcLpNdbBm7/GFitZwdXRPWiNWKlW92+ZE+6vuJojefprTcOCunuofedMr0OdSibRcHDx5Vfm+laY8PiCgFXTq1VbrHm18asg4cB6YIQztWjamocKH89NWQAbLHGzZirG0+VVkjDXJSzy4dpOxkpMHr5fCRo/TZlyMJLlDuEiYxUBWVDkQ0hRQxxWCjHT95Bq1dp56QxWS0OcGw3vDFutLjpZyYlFnDztkUk8nw/lksRouZc38liEO6STsADQbkzZNLWB3KUr58eSiLcI+CwI1hFmtAIE9FC+Hfk3++Ue/jfoQyHssF4MVdpDCiOwRIpT4WxePDuXrtGl0VoNt/6AjtEua+fcLpNT5raRKan34DwIR+Ma4vcXBAiwyYOFjDT+kLDjAAfcFlbsOWAwxAW9bwDV9wgAHoCy5zG7YcYADasoZv+IIDDEBfcJnbsOWAz23Btk/CN7zOAcQ3hL4w/6NlprC7Q1/48OHfwoHhtlzLAseOPWJtjru7T8X3oRmA8eWgn5eHC1ijBnWpVo0QKieWGKiCultfAU4eW4XTxbAR3xPMk94kVkR7k7sa68YWXj27vC4WydeN82ZAWOH3YpO2Xn0L7gG9yl49lcPzuqfYSswTG7HqSWEe9TZ5HYBNG9eX+3LMW/Cb3DTF2y/0pNcPp17EewHB6QExC7FO+eKlS3I9MOJMw7EjadIkctHWUzmyy31PECzKSr6Ie+71IThqzRK5CR+YMFaszJ89d5FfGcOtTH8crtFzYaHVTZug5qp3xFoTuPubCQuUaoiICt4kr6th3h/4uXQPx+6YA99/h5YKl3tsTaorJJs3mekvdcPD2RPw4bkRFda6Iu73U6e9/kpeByBCoLXt1Ctmp0pExfpqyMe0aM4kuajG62/IDbjNAWxjZia7LTDMeeJ77nUA4gHhMt+sTWeCS7tBWJk19tuh9OuciWJxeX25oZ5xj496OGCOb40n8MU2Xj4BIF4GwnDL9l1pwaJluIyhYkUKEfZ7C182h7q+2c4hVl9MRj7xKgcwMpl3f4fLvi8WzCcLyJlvkFffzFQ5XgrBwf8U0e4RJcu87hY7WCIURjuxjBJfIiKjwn2cKeE5ULxYYcKu7pgNY7ICwvXzIlClQViiOUusqfE2eV0No3oBrEfYISJMDR86QEY6NefBWlYjsjsWd8+Zv1hsarhaBqU05+NzzzgAsxuClCM8CAAIwpLQpi07EoKeWzfN+W35P1u6etaK57m9roZx9khY99H/ne7UppXzqT70WdiIedHSlXLLg4SKEe3s2R6He1j8j20nmol9Q+rWrq5UTL/WoYdcIrt+1cKYNcwYeWrVb+6TNThaAWj8k0OCg2jwx/3InWBCkCWXrlgl9+LdtmN3ot0l0nj3hD5CrMGewvXr1hSgq6mM7mW0iSWew7/7UeafMu47I5lG/fAzjf5hUsy1N0/8AoB4QcQ46d2jE7Vv3SyWbOjs5aHcxlrdVWLjlU2bt/rki3X2PLruIf5NJbHje91aIUK1VT2mJ7N7HnzEHw4aSus2RMssnw3sFxOpArs/1WnQwjaKql2dcU33GwAaLxBYohh93L+38NwINJLcOkKe2bptl9xlHIHC9+w7RKpQFm5V5ueZoMQvJfahw0QOMV/KlCrp1i7uEF3mCpkaXi6GuxXizESKjWsgI4I+/2okTZ4212cc8DsAGm8OF6L3endzGv/PyKs6Yk0x4rhEi+204FIEXaSznTVVdfhLGnq4UsLGC3eqsqUD5cdpAMbdZ0Ro3kFDhhP2ojNT/Xq16Lthn8gk7PzUVkSS8KWM7bcABEcwLLdr/aoMxeYpw81MxjmYiuhXWJh9QCzS3i+U4gcPH3UwP1nL+foagSyhpC9SqCAVK1KQSooRAU6kqmhi7jwbzGsjx46neWJLCxWwJowdTtWqVpJ62hbtuvicH34NQIPB8NrtJKJctW/TXIZcM9IT4gjzE3SOx0+copO/n6Iz587LEGdnxfEPseuRXUT5uLYNNVMOEb0glwh8nkf8jGOe3LmosABafD8047kQoXXi/2bKPUMQqk1F0LeGL50jAhNdow6d+8gPUpXPm2mJAoAGA7CBTGuxqyYmKnBu8AVBjkSYNYTSvX79Jt0SgL0phncAF4pc3L//4L6MR5MieQpKmTKFjAODsGnwx8uQIQNlFrFcsBtTlswIOZLKq4+NHm/S1Fk0Y/ZCl+5viP4P162RYycQthnTQYkKgAaDEA+lSaMXqK3QH8KUx0RyjxUAb+mKcOUWYv7Ko0QJQDMzIZjDcgJhOr4ewOZ6E8M5JlpLlobSbOFKFZdNfvzhHRM9AA0mQk6E8rVRg3pUKeifzQaNe4/TEcP+ug2bpVUIca0R+D0x02MDQPM/AdH2YXqqU7OaAGM5t3Rk5vL+do6wdJHrN8sIrghqmdATI53v+1gC0MxQBCqHmgHG9srCWoA1sf5OWBYJ38n1G6MockOUVLB7Ekva39/P/HyPPQDNL4vznGIRTsWgMnLHIkQuxebRUI3oJKhM9u0/KKPdS8W52AgH8t2TQE8cAK3/VBjvC+bPS4UK5pMR8qGLe0Ys6sEqMWwIk1BrV6CugYrk1OmzIg71KToiXKAQIPyQUIbDNvuk0hMPQGf/eNhJoawNCMgiFMQZ5eo+6PPSCtMY9HzY+xfHJEmSCtXHffm7IzbThskPRn2ExoXDhPFT7bDurP0n4R4D8En4L/vxO/psTYgf84AfTSMHGIAamc9NEzEAGQVaOcAA1Mp+bpwByBjQygEGoFb2c+MMQMaAVg4wALWynxtnADIGtHKAAaiV/dw4A5AxoJUDDECt7OfGGYCMAa0cYABqZT83zgBkDGjlAANQK/u5cQYgY0ArBxiAWtnPjTMAGQNaOcAA1Mp+bpwByBjQygEGoFb2c+MMQMaAVg4wALWynxtnADIGtHKAAaiV/dw4A5AxoJUDDECt7OfGGYCMAa0cYABqZT83zgBkDGjlAANQK/u5cQYgY0ArBxiAWtnPjTMAGQNaOcAA1Mp+bpwByBjQygEGoFb2c+MMQMaAVg4wALWynxtnADIGtHLg//rvF32nib+rAAAAAElFTkSuQmCC;" vertex="1" parent="1">
          <mxGeometry x="130" y="230" width="40" height="40" as="geometry" />
        </mxCell>
        <mxCell id="DTT3Ea2O5jjgb7lR_MIF-104" value="" style="rounded=0;whiteSpace=wrap;html=1;fontSize=8;fillColor=none;" vertex="1" parent="1">
          <mxGeometry x="130" y="230" width="800" height="490" as="geometry" />
        </mxCell>
      </root>
    </mxGraphModel>
  </diagram>
</mxfile>
